<svg width="40" height="40" viewBox="0 0 40 40" fill="none" xmlns="http://www.w3.org/2000/svg">
<path d="M14.5455 15.8333V30.8333C14.5455 31.0764 14.4602 31.276 14.2898 31.4323C14.1193 31.5885 13.9015 31.6667 13.6364 31.6667H11.8182C11.553 31.6667 11.3352 31.5885 11.1648 31.4323C10.9943 31.276 10.9091 31.0764 10.9091 30.8333V15.8333C10.9091 15.5903 10.9943 15.3906 11.1648 15.2344C11.3352 15.0781 11.553 15 11.8182 15H13.6364C13.9015 15 14.1193 15.0781 14.2898 15.2344C14.4602 15.3906 14.5455 15.5903 14.5455 15.8333ZM21.8182 15.8333V30.8333C21.8182 31.0764 21.733 31.276 21.5625 31.4323C21.392 31.5885 21.1742 31.6667 20.9091 31.6667H19.0909C18.8258 31.6667 18.608 31.5885 18.4375 31.4323C18.267 31.276 18.1818 31.0764 18.1818 30.8333V15.8333C18.1818 15.5903 18.267 15.3906 18.4375 15.2344C18.608 15.0781 18.8258 15 19.0909 15H20.9091C21.1742 15 21.392 15.0781 21.5625 15.2344C21.733 15.3906 21.8182 15.5903 21.8182 15.8333ZM29.0909 15.8333V30.8333C29.0909 31.0764 29.0057 31.276 28.8352 31.4323C28.6648 31.5885 28.447 31.6667 28.1818 31.6667H26.3636C26.0985 31.6667 25.8807 31.5885 25.7102 31.4323C25.5398 31.276 25.4545 31.0764 25.4545 30.8333V15.8333C25.4545 15.5903 25.5398 15.3906 25.7102 15.2344C25.8807 15.0781 26.0985 15 26.3636 15H28.1818C28.447 15 28.6648 15.0781 28.8352 15.2344C29.0057 15.3906 29.0909 15.5903 29.0909 15.8333ZM32.7273 34.6875V10H7.27273V34.6875C7.27273 35.0694 7.33902 35.421 7.47159 35.7422C7.60417 36.0634 7.74148 36.2977 7.88352 36.4453C8.02557 36.5929 8.125 36.6667 8.18182 36.6667H31.8182C31.875 36.6667 31.9744 36.5929 32.1165 36.4453C32.2585 36.2977 32.3958 36.0634 32.5284 35.7422C32.661 35.421 32.7273 35.0694 32.7273 34.6875ZM13.6364 6.66667H26.3636L25 3.61979C24.8674 3.46354 24.7064 3.36806 24.517 3.33333H15.5114C15.322 3.36806 15.161 3.46354 15.0284 3.61979L13.6364 6.66667ZM40 7.5V9.16667C40 9.40972 39.9148 9.60938 39.7443 9.76562C39.5739 9.92188 39.3561 10 39.0909 10H36.3636V34.6875C36.3636 36.1285 35.9186 37.3741 35.0284 38.4245C34.1383 39.4748 33.0682 40 31.8182 40H8.18182C6.93182 40 5.86174 39.4922 4.97159 38.4766C4.08144 37.4609 3.63636 36.2326 3.63636 34.7917V10H0.909091C0.643939 10 0.426136 9.92188 0.255682 9.76562C0.0852273 9.60938 0 9.40972 0 9.16667V7.5C0 7.25694 0.0852273 7.05729 0.255682 6.90104C0.426136 6.74479 0.643939 6.66667 0.909091 6.66667H9.6875L11.6761 2.31771C11.9602 1.67535 12.4716 1.12847 13.2102 0.677083C13.9489 0.225694 14.697 0 15.4545 0H24.5455C25.303 0 26.0511 0.225694 26.7898 0.677083C27.5284 1.12847 28.0398 1.67535 28.3239 2.31771L30.3125 6.66667H39.0909C39.3561 6.66667 39.5739 6.74479 39.7443 6.90104C39.9148 7.05729 40 7.25694 40 7.5Z" fill="black"/>
</svg>
