<svg width="40" height="40" viewBox="0 0 40 40" fill="none" xmlns="http://www.w3.org/2000/svg">
<path d="M8.05176 31.25C8.14941 31.25 8.24707 31.2402 8.34473 31.2256L16.5576 29.7852C16.6553 29.7656 16.748 29.7217 16.8164 29.6484L37.5146 8.95019C37.5599 8.90502 37.5958 8.85137 37.6203 8.7923C37.6448 8.73323 37.6574 8.66991 37.6574 8.60596C37.6574 8.54201 37.6448 8.47869 37.6203 8.41962C37.5958 8.36055 37.5599 8.30689 37.5146 8.26172L29.3994 0.141602C29.3066 0.0488282 29.1846 0 29.0527 0C28.9209 0 28.7988 0.0488282 28.7061 0.141602L8.00781 20.8398C7.93457 20.9131 7.89062 21.001 7.87109 21.0986L6.43066 29.3115C6.38316 29.5731 6.40014 29.8423 6.48011 30.0959C6.56009 30.3494 6.70066 30.5796 6.88965 30.7666C7.21191 31.0791 7.61719 31.25 8.05176 31.25ZM11.3428 22.7344L29.0527 5.0293L32.6318 8.6084L14.9219 26.3135L10.5811 27.0801L11.3428 22.7344ZM38.4375 35.3516H2.5C1.63574 35.3516 0.9375 36.0498 0.9375 36.9141V38.6719C0.9375 38.8867 1.11328 39.0625 1.32812 39.0625H39.6094C39.8242 39.0625 40 38.8867 40 38.6719V36.9141C40 36.0498 39.3018 35.3516 38.4375 35.3516Z" fill="black"/>
</svg>
